# xmcd CD database file
#
# Track frame offsets:
#	150
#	18879
#	27413
#	39054
#	71273
#	85788
#	98565
#	107971
#	125272
#	137948
#	153539
#	165065
#	173554
#	186781
#	201126
#	213551
#	224180
#	236264
#	251824
#	266635
#	277699
#	287234
#	296093
#
# Disc length: 4158 seconds
#
# Revision: 0
# Processed by: cddbd v1.5.1PL0 Copyright (c) Steve Scherf et al.
# Submitted via: CDex 1.51
#
DISCID=46103c17
DTITLE=Cash/Dylan - Nashville Sessions and More (Spank)
DYEAR=1969
DGENRE=Country
TTITLE0=One Too Many Mornings (feb 69)
TTITLE1=Good Ol' Mountain Dew
TTITLE2=I Still Miss Someone
TTITLE3=Careless Love
TTITLE4=Matchbox
TTITLE5=That's Allright, Mama
TTITLE6=Big River
TTITLE7=Girl From The North Country (feb 69)
TTITLE8=I Walk The Line
TTITLE9=You Are My Sunshine
TTITLE10=Ring of Fire
TTITLE11=Guess Things Happen That Way
TTITLE12=Just a Closer Walk With Thee
TTITLE13=Blue Yodel
TTITLE14=Blue Yodel #5 (T For Texas)
TTITLE15=I Threw It All Away (May 69-JC Show)
TTITLE16=Living The Blues (May 69-JC Show) 
TTITLE17=Girl From The North Country (May 69-JC Show)
TTITLE18=Nashville Skyline Rag Quad
TTITLE19=I Threw It All Away Quad
TTITLE20=Peggy Day Quad
TTITLE21=Country Pie Quad
TTITLE22=Tonight I'll Be Staying Here With You Quad
EXTD=YEAR: 1969
EXTT0=
EXTT1=
EXTT2=
EXTT3=
EXTT4=
EXTT5=
EXTT6=
EXTT7=
EXTT8=
EXTT9=
EXTT10=
EXTT11=
EXTT12=
EXTT13=
EXTT14=
EXTT15=
EXTT16=
EXTT17=
EXTT18=
EXTT19=
EXTT20=
EXTT21=
EXTT22=
PLAYORDER=
